<?plantuml 1.2026.2?><svg xmlns="http://www.w3.org/2000/svg" xmlns:xlink="http://www.w3.org/1999/xlink" contentStyleType="text/css" data-diagram-type="DESCRIPTION" height="1123px" preserveAspectRatio="none" style="width:709px;height:1123px;background:#FFFFFF;" version="1.1" viewBox="0 0 709 1123" width="709px" zoomAndPan="magnify"><defs/><g><!--cluster backend--><g class="cluster" data-qualified-name="backend" data-source-line="6" id="ent0005"><path d="M8.5,99.7187 L38.375,99.7187 A3.75,3.75 0 0 1 40.875,102.2187 L47.875,122.0156 L534.5,122.0156 A2.5,2.5 0 0 1 537,124.5156 L537,540.2187 A2.5,2.5 0 0 1 534.5,542.7187 L8.5,542.7187 A2.5,2.5 0 0 1 6,540.2187 L6,102.2187 A2.5,2.5 0 0 1 8.5,99.7187" fill="none" style="stroke:#000000;stroke-width:1.5;"/><line style="stroke:#000000;stroke-width:1.5;" x1="6" x2="47.875" y1="122.0156" y2="122.0156"/><text fill="#000000" font-family="sans-serif" font-size="14" font-weight="bold" lengthAdjust="spacing" textLength="28.875" x="10" y="114.7138">&#21518;&#31471;</text></g><!--cluster Reader--><g class="cluster" data-qualified-name="backend.Reader" data-source-line="7" id="ent0006"><path d="M32.5,142.7187 L105.6875,142.7187 A3.75,3.75 0 0 1 108.1875,145.2187 L115.1875,165.0156 L486.5,165.0156 A2.5,2.5 0 0 1 489,167.5156 L489,247.2187 A2.5,2.5 0 0 1 486.5,249.7187 L32.5,249.7187 A2.5,2.5 0 0 1 30,247.2187 L30,145.2187 A2.5,2.5 0 0 1 32.5,142.7187" fill="none" style="stroke:#000000;stroke-width:1.5;"/><line style="stroke:#000000;stroke-width:1.5;" x1="30" x2="115.1875" y1="165.0156" y2="165.0156"/><text fill="#000000" font-family="sans-serif" font-size="14" font-weight="bold" lengthAdjust="spacing" textLength="72.1875" x="34" y="157.7138">&#30452;&#25773;&#35835;&#21462;&#22120;</text></g><!--cluster lib--><g class="cluster" data-qualified-name="backend.lib" data-source-line="13" id="ent0010"><path d="M32.5,298.7187 L47.9375,298.7187 A3.75,3.75 0 0 1 50.4375,301.2187 L57.4375,321.0156 L510.5,321.0156 A2.5,2.5 0 0 1 513,323.5156 L513,516.2187 A2.5,2.5 0 0 1 510.5,518.7187 L32.5,518.7187 A2.5,2.5 0 0 1 30,516.2187 L30,301.2187 A2.5,2.5 0 0 1 32.5,298.7187" fill="none" style="stroke:#000000;stroke-width:1.5;"/><line style="stroke:#000000;stroke-width:1.5;" x1="30" x2="57.4375" y1="321.0156" y2="321.0156"/><text fill="#000000" font-family="sans-serif" font-size="14" font-weight="bold" lengthAdjust="spacing" textLength="14.4375" x="34" y="313.7138">&#24211;</text></g><!--cluster frontend--><g class="cluster" data-qualified-name="frontend" data-source-line="34" id="ent0031"><path d="M197.5,591.7187 L227.375,591.7187 A3.75,3.75 0 0 1 229.875,594.2187 L236.875,614.0156 L699.5,614.0156 A2.5,2.5 0 0 1 702,616.5156 L702,1016.2187 A2.5,2.5 0 0 1 699.5,1018.7187 L197.5,1018.7187 A2.5,2.5 0 0 1 195,1016.2187 L195,594.2187 A2.5,2.5 0 0 1 197.5,591.7187" fill="none" style="stroke:#000000;stroke-width:1.5;"/><line style="stroke:#000000;stroke-width:1.5;" x1="195" x2="236.875" y1="614.0156" y2="614.0156"/><text fill="#000000" font-family="sans-serif" font-size="14" font-weight="bold" lengthAdjust="spacing" textLength="28.875" x="199" y="606.7138">&#21069;&#31471;</text></g><!--cluster view--><g class="cluster" data-qualified-name="frontend.view" data-source-line="35" id="ent0032"><path d="M228.5,634.7187 L258.375,634.7187 A3.75,3.75 0 0 1 260.875,637.2187 L267.875,657.0156 L510.5,657.0156 A2.5,2.5 0 0 1 513,659.5156 L513,836.2187 A2.5,2.5 0 0 1 510.5,838.7187 L228.5,838.7187 A2.5,2.5 0 0 1 226,836.2187 L226,637.2187 A2.5,2.5 0 0 1 228.5,634.7187" fill="none" style="stroke:#000000;stroke-width:1.5;"/><line style="stroke:#000000;stroke-width:1.5;" x1="226" x2="267.875" y1="657.0156" y2="657.0156"/><text fill="#000000" font-family="sans-serif" font-size="14" font-weight="bold" lengthAdjust="spacing" textLength="28.875" x="230" y="649.7138">&#39029;&#38754;</text></g><!--cluster Player--><g class="cluster" data-qualified-name="frontend.Player" data-source-line="41" id="ent0037"><path d="M221.5,887.7187 L294.6875,887.7187 A3.75,3.75 0 0 1 297.1875,890.2187 L304.1875,910.0156 L675.5,910.0156 A2.5,2.5 0 0 1 678,912.5156 L678,992.2187 A2.5,2.5 0 0 1 675.5,994.7187 L221.5,994.7187 A2.5,2.5 0 0 1 219,992.2187 L219,890.2187 A2.5,2.5 0 0 1 221.5,887.7187" fill="none" style="stroke:#000000;stroke-width:1.5;"/><line style="stroke:#000000;stroke-width:1.5;" x1="219" x2="304.1875" y1="910.0156" y2="910.0156"/><text fill="#000000" font-family="sans-serif" font-size="14" font-weight="bold" lengthAdjust="spacing" textLength="72.1875" x="223" y="902.7138">&#38899;&#20048;&#25773;&#25918;&#22120;</text></g><!--entity ReaderA--><g class="entity" data-qualified-name="backend.Reader.ReaderA" data-source-line="8" id="ent0007"><path d="M48.5,177.7187 L128.4785,177.7187 A3.75,3.75 0 0 1 130.9785,180.2187 L137.9785,200.0156 L161.9775,200.0156 A2.5,2.5 0 0 1 164.4775,202.5156 L164.4775,230.8124 A2.5,2.5 0 0 1 161.9775,233.3124 L48.5,233.3124 A2.5,2.5 0 0 1 46,230.8124 L46,180.2187 A2.5,2.5 0 0 1 48.5,177.7187" fill="#F1F1F1" style="stroke:#181818;stroke-width:0.5;"/><line style="stroke:#181818;stroke-width:0.5;" x1="46" x2="137.9785" y1="200.0156" y2="200.0156"/><text fill="#000000" font-family="sans-serif" font-size="14" font-weight="bold" lengthAdjust="spacing" textLength="66.9785" x="56" y="193.7138">ReaderA</text><text fill="#000000" font-family="sans-serif" font-size="14" lengthAdjust="spacing" textLength="88.4775" x="56" y="220.0107">&#24179;&#21488; A &#35835;&#21462;&#22120;</text></g><!--entity ReaderB--><g class="entity" data-qualified-name="backend.Reader.ReaderB" data-source-line="9" id="ent0008"><path d="M202,177.7187 L281.8145,177.7187 A3.75,3.75 0 0 1 284.3145,180.2187 L291.3145,200.0156 L315.5049,200.0156 A2.5,2.5 0 0 1 318.0049,202.5156 L318.0049,230.8124 A2.5,2.5 0 0 1 315.5049,233.3124 L202,233.3124 A2.5,2.5 0 0 1 199.5,230.8124 L199.5,180.2187 A2.5,2.5 0 0 1 202,177.7187" fill="#F1F1F1" style="stroke:#181818;stroke-width:0.5;"/><line style="stroke:#181818;stroke-width:0.5;" x1="199.5" x2="291.3145" y1="200.0156" y2="200.0156"/><text fill="#000000" font-family="sans-serif" font-size="14" font-weight="bold" lengthAdjust="spacing" textLength="66.8145" x="209.5" y="193.7138">ReaderB</text><text fill="#000000" font-family="sans-serif" font-size="14" lengthAdjust="spacing" textLength="88.5049" x="209.5" y="220.0107">&#24179;&#21488; B &#35835;&#21462;&#22120;</text></g><!--entity ReaderC--><g class="entity" data-qualified-name="backend.Reader.ReaderC" data-source-line="10" id="ent0009"><path d="M356,177.7187 L435.418,177.7187 A3.75,3.75 0 0 1 437.918,180.2187 L444.918,200.0156 L469.6758,200.0156 A2.5,2.5 0 0 1 472.1758,202.5156 L472.1758,230.8124 A2.5,2.5 0 0 1 469.6758,233.3124 L356,233.3124 A2.5,2.5 0 0 1 353.5,230.8124 L353.5,180.2187 A2.5,2.5 0 0 1 356,177.7187" fill="#F1F1F1" style="stroke:#181818;stroke-width:0.5;"/><line style="stroke:#181818;stroke-width:0.5;" x1="353.5" x2="444.918" y1="200.0156" y2="200.0156"/><text fill="#000000" font-family="sans-serif" font-size="14" font-weight="bold" lengthAdjust="spacing" textLength="66.418" x="363.5" y="193.7138">ReaderC</text><text fill="#000000" font-family="sans-serif" font-size="14" lengthAdjust="spacing" textLength="88.6758" x="363.5" y="220.0107">&#24179;&#21488; C &#35835;&#21462;&#22120;</text></g><!--entity Parser--><g class="entity" data-qualified-name="backend.lib.Parser" data-source-line="14" id="ent0011"><rect fill="#F1F1F1" height="46.2969" rx="2.5" ry="2.5" style="stroke:#181818;stroke-width:0.5;" width="110" x="197" y="333.7187"/><rect fill="#F1F1F1" height="10" style="stroke:#181818;stroke-width:0.5;" width="15" x="287" y="338.7187"/><rect fill="#F1F1F1" height="2" style="stroke:#181818;stroke-width:0.5;" width="4" x="285" y="340.7187"/><rect fill="#F1F1F1" height="2" style="stroke:#181818;stroke-width:0.5;" width="4" x="285" y="344.7187"/><text fill="#000000" font-family="sans-serif" font-size="14" lengthAdjust="spacing" textLength="70" x="212" y="366.7138">&#25351;&#20196;&#35299;&#26512;&#22120;</text></g><!--entity Jukebox--><g class="entity" data-qualified-name="backend.lib.Jukebox" data-source-line="15" id="ent0012"><rect fill="#F1F1F1" height="46.2969" rx="2.5" ry="2.5" style="stroke:#181818;stroke-width:0.5;" width="82" x="191" y="456.7187"/><rect fill="#F1F1F1" height="10" style="stroke:#181818;stroke-width:0.5;" width="15" x="253" y="461.7187"/><rect fill="#F1F1F1" height="2" style="stroke:#181818;stroke-width:0.5;" width="4" x="251" y="463.7187"/><rect fill="#F1F1F1" height="2" style="stroke:#181818;stroke-width:0.5;" width="4" x="251" y="467.7187"/><text fill="#000000" font-family="sans-serif" font-size="14" lengthAdjust="spacing" textLength="42" x="206" y="489.7138">&#28857;&#27468;&#26426;</text></g><!--entity SongList--><g class="entity" data-qualified-name="backend.lib.SongList" data-source-line="16" id="ent0013"><rect fill="#F1F1F1" height="46.2969" rx="2.5" ry="2.5" style="stroke:#181818;stroke-width:0.5;" width="110" x="46" y="456.7187"/><rect fill="#F1F1F1" height="10" style="stroke:#181818;stroke-width:0.5;" width="15" x="136" y="461.7187"/><rect fill="#F1F1F1" height="2" style="stroke:#181818;stroke-width:0.5;" width="4" x="134" y="463.7187"/><rect fill="#F1F1F1" height="2" style="stroke:#181818;stroke-width:0.5;" width="4" x="134" y="467.7187"/><text fill="#000000" font-family="sans-serif" font-size="14" lengthAdjust="spacing" textLength="70" x="61" y="489.7138">&#27468;&#21333;&#31649;&#29702;&#22120;</text></g><!--entity AutoPicker--><g class="entity" data-qualified-name="backend.lib.AutoPicker" data-source-line="17" id="ent0014"><rect fill="#F1F1F1" height="46.2969" rx="2.5" ry="2.5" style="stroke:#181818;stroke-width:0.5;" width="110" x="46" y="333.7187"/><rect fill="#F1F1F1" height="10" style="stroke:#181818;stroke-width:0.5;" width="15" x="136" y="338.7187"/><rect fill="#F1F1F1" height="2" style="stroke:#181818;stroke-width:0.5;" width="4" x="134" y="340.7187"/><rect fill="#F1F1F1" height="2" style="stroke:#181818;stroke-width:0.5;" width="4" x="134" y="344.7187"/><text fill="#000000" font-family="sans-serif" font-size="14" lengthAdjust="spacing" textLength="70" x="61" y="366.7138">&#22791;&#36873;&#28857;&#27468;&#22120;</text></g><!--entity DialogEventer--><g class="entity" data-qualified-name="backend.lib.DialogEventer" data-source-line="18" id="ent0015"><rect fill="#F1F1F1" height="46.2969" rx="2.5" ry="2.5" style="stroke:#181818;stroke-width:0.5;" width="96" x="401" y="456.7187"/><rect fill="#F1F1F1" height="10" style="stroke:#181818;stroke-width:0.5;" width="15" x="477" y="461.7187"/><rect fill="#F1F1F1" height="2" style="stroke:#181818;stroke-width:0.5;" width="4" x="475" y="463.7187"/><rect fill="#F1F1F1" height="2" style="stroke:#181818;stroke-width:0.5;" width="4" x="475" y="467.7187"/><text fill="#000000" font-family="sans-serif" font-size="14" lengthAdjust="spacing" textLength="56" x="416" y="489.7138">&#23545;&#35805;&#20107;&#20214;</text></g><!--entity DialogState--><g class="entity" data-qualified-name="frontend.view.DialogState" data-source-line="36" id="ent0033"><rect fill="#F1F1F1" height="46.2969" rx="2.5" ry="2.5" style="stroke:#181818;stroke-width:0.5;" width="96" x="401" y="669.7187"/><rect fill="#F1F1F1" height="10" style="stroke:#181818;stroke-width:0.5;" width="15" x="477" y="674.7187"/><rect fill="#F1F1F1" height="2" style="stroke:#181818;stroke-width:0.5;" width="4" x="475" y="676.7187"/><rect fill="#F1F1F1" height="2" style="stroke:#181818;stroke-width:0.5;" width="4" x="475" y="680.7187"/><text fill="#000000" font-family="sans-serif" font-size="14" lengthAdjust="spacing" textLength="56" x="416" y="702.7138">&#23545;&#35805;&#29366;&#24577;</text></g><!--entity ListDisplay--><g class="entity" data-qualified-name="frontend.view.ListDisplay" data-source-line="37" id="ent0034"><rect fill="#F1F1F1" height="46.2969" rx="2.5" ry="2.5" style="stroke:#181818;stroke-width:0.5;" width="124" x="242" y="669.7187"/><rect fill="#F1F1F1" height="10" style="stroke:#181818;stroke-width:0.5;" width="15" x="346" y="674.7187"/><rect fill="#F1F1F1" height="2" style="stroke:#181818;stroke-width:0.5;" width="4" x="344" y="676.7187"/><rect fill="#F1F1F1" height="2" style="stroke:#181818;stroke-width:0.5;" width="4" x="344" y="680.7187"/><text fill="#000000" font-family="sans-serif" font-size="14" lengthAdjust="spacing" textLength="84" x="257" y="702.7138">&#38899;&#20048;&#21015;&#34920;&#26174;&#31034;</text></g><!--entity Prompt--><g class="entity" data-qualified-name="frontend.view.Prompt" data-source-line="38" id="ent0035"><rect fill="#F1F1F1" height="46.2969" rx="2.5" ry="2.5" style="stroke:#181818;stroke-width:0.5;" width="96" x="270" y="776.7187"/><rect fill="#F1F1F1" height="10" style="stroke:#181818;stroke-width:0.5;" width="15" x="346" y="781.7187"/><rect fill="#F1F1F1" height="2" style="stroke:#181818;stroke-width:0.5;" width="4" x="344" y="783.7187"/><rect fill="#F1F1F1" height="2" style="stroke:#181818;stroke-width:0.5;" width="4" x="344" y="787.7187"/><text fill="#000000" font-family="sans-serif" font-size="14" lengthAdjust="spacing" textLength="56" x="285" y="809.7138">&#25991;&#26412;&#25552;&#31034;</text></g><!--entity PlayController--><g class="entity" data-qualified-name="frontend.view.PlayController" data-source-line="39" id="ent0036"><rect fill="#F1F1F1" height="46.2969" rx="2.5" ry="2.5" style="stroke:#181818;stroke-width:0.5;" width="96" x="401" y="776.7187"/><rect fill="#F1F1F1" height="10" style="stroke:#181818;stroke-width:0.5;" width="15" x="477" y="781.7187"/><rect fill="#F1F1F1" height="2" style="stroke:#181818;stroke-width:0.5;" width="4" x="475" y="783.7187"/><rect fill="#F1F1F1" height="2" style="stroke:#181818;stroke-width:0.5;" width="4" x="475" y="787.7187"/><text fill="#000000" font-family="sans-serif" font-size="14" lengthAdjust="spacing" textLength="56" x="416" y="809.7138">&#25773;&#25918;&#35843;&#24230;</text></g><!--entity PlayerA--><g class="entity" data-qualified-name="frontend.Player.PlayerA" data-source-line="42" id="ent0038"><path d="M546.5,922.7187 L620.3672,922.7187 A3.75,3.75 0 0 1 622.8672,925.2187 L629.8672,945.0156 L659.9775,945.0156 A2.5,2.5 0 0 1 662.4775,947.5156 L662.4775,975.8124 A2.5,2.5 0 0 1 659.9775,978.3124 L546.5,978.3124 A2.5,2.5 0 0 1 544,975.8124 L544,925.2187 A2.5,2.5 0 0 1 546.5,922.7187" fill="#F1F1F1" style="stroke:#181818;stroke-width:0.5;"/><line style="stroke:#181818;stroke-width:0.5;" x1="544" x2="629.8672" y1="945.0156" y2="945.0156"/><text fill="#000000" font-family="sans-serif" font-size="14" font-weight="bold" lengthAdjust="spacing" textLength="60.8672" x="554" y="938.7138">PlayerA</text><text fill="#000000" font-family="sans-serif" font-size="14" lengthAdjust="spacing" textLength="88.4775" x="554" y="965.0107">&#24179;&#21488; A &#25773;&#25918;&#22120;</text></g><!--entity PlayerB--><g class="entity" data-qualified-name="frontend.Player.PlayerB" data-source-line="43" id="ent0039"><path d="M392,922.7187 L465.7031,922.7187 A3.75,3.75 0 0 1 468.2031,925.2187 L475.2031,945.0156 L505.5049,945.0156 A2.5,2.5 0 0 1 508.0049,947.5156 L508.0049,975.8124 A2.5,2.5 0 0 1 505.5049,978.3124 L392,978.3124 A2.5,2.5 0 0 1 389.5,975.8124 L389.5,925.2187 A2.5,2.5 0 0 1 392,922.7187" fill="#F1F1F1" style="stroke:#181818;stroke-width:0.5;"/><line style="stroke:#181818;stroke-width:0.5;" x1="389.5" x2="475.2031" y1="945.0156" y2="945.0156"/><text fill="#000000" font-family="sans-serif" font-size="14" font-weight="bold" lengthAdjust="spacing" textLength="60.7031" x="399.5" y="938.7138">PlayerB</text><text fill="#000000" font-family="sans-serif" font-size="14" lengthAdjust="spacing" textLength="88.5049" x="399.5" y="965.0107">&#24179;&#21488; B &#25773;&#25918;&#22120;</text></g><!--entity PlayerC--><g class="entity" data-qualified-name="frontend.Player.PlayerC" data-source-line="44" id="ent0040"><path d="M238,922.7187 L311.3066,922.7187 A3.75,3.75 0 0 1 313.8066,925.2187 L320.8066,945.0156 L351.6758,945.0156 A2.5,2.5 0 0 1 354.1758,947.5156 L354.1758,975.8124 A2.5,2.5 0 0 1 351.6758,978.3124 L238,978.3124 A2.5,2.5 0 0 1 235.5,975.8124 L235.5,925.2187 A2.5,2.5 0 0 1 238,922.7187" fill="#F1F1F1" style="stroke:#181818;stroke-width:0.5;"/><line style="stroke:#181818;stroke-width:0.5;" x1="235.5" x2="320.8066" y1="945.0156" y2="945.0156"/><text fill="#000000" font-family="sans-serif" font-size="14" font-weight="bold" lengthAdjust="spacing" textLength="60.3066" x="245.5" y="938.7138">PlayerC</text><text fill="#000000" font-family="sans-serif" font-size="14" lengthAdjust="spacing" textLength="88.6758" x="245.5" y="965.0107">&#24179;&#21488; C &#25773;&#25918;&#22120;</text></g><!--entity liveA--><g class="entity" data-qualified-name="liveA" data-source-line="2" id="ent0002"><path d="M54.1727,15.8215 C57.5457,9.0887 63.0004,9.044 67.6514,14.396 C71.4438,8.166 77.2689,8.0331 80.4122,15.0226 C83.673,7.5098 87.6792,7.2525 93.3114,12.6539 C98.217,6.7937 102.3951,6.012 107.1963,12.7688 C111.7015,7.2244 115.9527,8.9149 118.8182,14.4835 C122.2236,9.0217 127.7239,9.1513 131.0044,14.6227 C135.2259,8.1154 139.3445,8.7094 143.7774,14.4014 C148.0545,8.9013 154.5162,9.0011 158.0928,15.2546 C166.6356,19.0442 167.9382,26.261 159.4838,31.5055 C166.1224,36.7649 164.8806,42.7572 157.244,45.7761 C154.227,52.2708 149.7313,51.7432 145.5303,47.0115 C142.0139,54.5504 137.4497,55.7119 131.7625,49.1275 C128.6709,55.3651 124.5562,56.0932 120.0377,50.5473 C117.6412,57.2238 111.262,59.1242 106.8047,52.6156 C102.4709,58.0898 97.2122,58.9333 93.445,52.0053 C88.3889,57.0745 82.6898,55.0633 80.475,48.7637 C75.7802,53.5814 71.443,53.557 67.8264,47.5086 C64.2941,53.4249 58.5443,53.4678 55.4789,47.0416 C45.0673,45.8281 41.1998,40.2377 46.5917,30.5222 C41.7496,21.6759 44.5981,17.2332 54.1727,15.8215" fill="#F1F1F1" style="stroke:#181818;stroke-width:0.5;"/><text fill="#000000" font-family="sans-serif" font-size="14" lengthAdjust="spacing" textLength="88.4775" x="61" y="34.7138">&#24179;&#21488; A &#30452;&#25773;&#38388;</text></g><!--entity liveB--><g class="entity" data-qualified-name="liveB" data-source-line="3" id="ent0003"><path d="M207.6727,15.8215 C211.0467,9.0871 216.5028,9.0425 221.1548,14.396 C224.9481,8.1643 230.7748,8.0312 233.919,15.0226 C237.181,7.5081 241.1882,7.2509 246.8216,12.6539 C251.7284,6.7922 255.9076,6.0103 260.71,12.7688 C265.2163,7.2226 269.4687,8.9134 272.3353,14.4835 C275.7417,9.0202 281.2434,9.1498 284.5249,14.6227 C288.7475,8.1137 292.8673,8.7079 297.3013,14.4014 C301.5793,8.8999 308.0426,8.9997 311.6201,15.2546 C320.163,19.0442 321.4655,26.261 313.0111,31.5055 C319.6498,36.7649 318.408,42.7572 310.7714,45.7761 C307.7533,52.2726 303.2563,51.7447 299.0542,47.0115 C295.5367,54.5521 290.9713,55.7137 285.283,49.1275 C282.1903,55.3668 278.0744,56.0949 273.5548,50.5473 C271.1574,57.2254 264.7766,59.126 260.3184,52.6156 C255.9836,58.0913 250.7235,58.935 246.9553,52.0053 C241.8982,57.0761 236.1975,55.0647 233.9818,48.7637 C229.2859,53.5828 224.9475,53.5585 221.3298,47.5086 C217.7966,53.4266 212.0452,53.4696 208.9789,47.0416 C198.5673,45.8281 194.6998,40.2377 200.0917,30.5222 C195.2496,21.6759 198.0981,17.2332 207.6727,15.8215" fill="#F1F1F1" style="stroke:#181818;stroke-width:0.5;"/><text fill="#000000" font-family="sans-serif" font-size="14" lengthAdjust="spacing" textLength="88.5049" x="214.5" y="34.7138">&#24179;&#21488; B &#30452;&#25773;&#38388;</text></g><!--entity liveC--><g class="entity" data-qualified-name="liveC" data-source-line="4" id="ent0004"><path d="M361.6727,15.8215 C365.0531,9.0771 370.5177,9.0334 375.1762,14.396 C378.9753,8.1536 384.8117,8.0198 387.9617,15.0226 C391.2311,7.497 395.2449,7.2405 400.8857,12.6539 C405.8,6.7831 409.9856,6 414.7954,12.7688 C419.3083,7.2115 423.5689,8.9042 426.4421,14.4835 C429.8543,9.0106 435.3657,9.1402 438.6531,14.6227 C442.8829,8.1029 447.0096,8.6983 451.4508,14.4014 C455.7347,8.8914 462.2077,8.9907 465.791,15.2546 C474.3339,19.0442 475.6364,26.261 467.182,31.5055 C473.8207,36.7649 472.5789,42.7572 464.9423,45.7761 C461.9175,52.2837 457.4125,51.7541 453.2038,47.0115 C449.6791,54.5627 445.1066,55.725 439.4112,49.1275 C436.3116,55.3773 432.1881,56.1059 427.6616,50.5473 C425.2588,57.2353 418.8674,59.1374 414.4038,52.6156 C410.0625,58.1003 404.7941,58.9458 401.0194,52.0053 C395.9564,57.0859 390.2461,55.0736 388.0245,48.7637 C383.3216,53.5916 378.9759,53.568 375.3511,47.5086 C371.8123,53.4371 366.0509,53.4805 362.9789,47.0416 C352.5673,45.8281 348.6998,40.2377 354.0917,30.5222 C349.2496,21.6759 352.0981,17.2332 361.6727,15.8215" fill="#F1F1F1" style="stroke:#181818;stroke-width:0.5;"/><text fill="#000000" font-family="sans-serif" font-size="14" lengthAdjust="spacing" textLength="88.6758" x="368.5" y="34.7138">&#24179;&#21488; C &#30452;&#25773;&#38388;</text></g><!--entity musicA--><g class="entity" data-qualified-name="musicA" data-source-line="56" id="ent0051"><path d="M563.0308,1075.2702 C565.6682,1069.7074 570.8636,1068.2672 575.3114,1073.1395 C579.4392,1065.9141 584.7513,1067.3374 589.0615,1072.944 C593.5176,1064.0581 599.0249,1065.0875 604.8391,1071.5477 C609.1388,1066.6972 614.8621,1067.4174 617.2708,1073.6658 C621.7853,1067.5182 628.7264,1068.2101 632.2204,1074.858 C636.0231,1067.618 643.2838,1067.0685 647.0748,1074.8696 C656.7355,1074.8389 658.7941,1082.3772 655.0587,1089.6049 C660.1726,1098.2748 657.4105,1105.6779 646.3854,1105.5922 C643.5968,1113.361 636.9268,1114.1148 632.2834,1107.398 C629.0824,1114.9141 622.6426,1115.3367 618.5347,1108.252 C615.304,1115.2197 609.2118,1115.8245 604.064,1110.5108 C599.0602,1115.9593 593.0714,1116.2705 590.2614,1108.2609 C584.5946,1113.7971 579.6403,1114.0989 575.7179,1106.3511 C571.326,1112.262 564.8406,1111.3435 561.5053,1105.1142 C552.2022,1103.3046 548.0759,1099.3008 553.7028,1089.8564 C549.7983,1081.519 554.4409,1075.6173 563.0308,1075.2702" fill="#F1F1F1" style="stroke:#181818;stroke-width:0.5;"/><text fill="#000000" font-family="sans-serif" font-size="14" lengthAdjust="spacing" textLength="70.0273" x="568" y="1093.7138">&#38899;&#20048;&#24179;&#21488; A</text></g><!--entity musicB--><g class="entity" data-qualified-name="musicB" data-source-line="57" id="ent0052"><path d="M409.0308,1075.2702 C411.6695,1069.7055 416.8669,1068.2652 421.316,1073.1395 C425.4452,1065.9118 430.759,1067.3356 435.0706,1072.944 C439.5282,1064.0557 445.0371,1065.0855 450.8528,1071.5477 C455.1537,1066.6952 460.8791,1067.4154 463.289,1073.6658 C467.8047,1067.5163 474.748,1068.2082 478.2432,1074.858 C482.0471,1067.6157 489.31,1067.0661 493.1021,1074.8696 C502.7628,1074.8389 504.8214,1082.3772 501.0861,1089.6049 C506.1999,1098.2748 503.4378,1105.6779 492.4127,1105.5922 C489.623,1113.3633 482.9508,1114.1171 478.3061,1107.398 C475.104,1114.9165 468.662,1115.3391 464.553,1108.252 C461.3209,1115.2217 455.2268,1115.8264 450.0777,1110.5108 C445.0725,1115.9613 439.0818,1116.2729 436.2705,1108.2609 C430.6022,1113.799 425.6464,1114.1012 421.7224,1106.3511 C417.3293,1112.264 410.8418,1111.3454 407.5053,1105.1142 C398.2022,1103.3046 394.0759,1099.3008 399.7028,1089.8564 C395.7983,1081.519 400.4409,1075.6173 409.0308,1075.2702" fill="#F1F1F1" style="stroke:#181818;stroke-width:0.5;"/><text fill="#000000" font-family="sans-serif" font-size="14" lengthAdjust="spacing" textLength="70.0547" x="414" y="1093.7138">&#38899;&#20048;&#24179;&#21488; B</text></g><!--entity musicC--><g class="entity" data-qualified-name="musicC" data-source-line="58" id="ent0053"><path d="M255.0308,1075.2702 C257.6776,1069.694 262.8872,1068.2524 267.3445,1073.1395 C271.4824,1065.8969 276.8072,1067.3238 281.1276,1072.944 C285.5945,1064.0405 291.1131,1065.073 296.9382,1071.5477 C301.2469,1066.6828 306.9853,1067.4024 309.403,1073.6658 C313.9263,1067.5039 320.8828,1068.1962 324.3856,1074.858 C328.1968,1067.6019 335.4736,1067.0511 339.273,1074.8696 C348.9337,1074.8389 350.9923,1082.3772 347.257,1089.6049 C352.3708,1098.2748 349.6087,1105.6779 338.5836,1105.5922 C335.7864,1113.378 329.1008,1114.1316 324.4486,1107.398 C321.2388,1114.9316 314.7835,1115.3543 310.6669,1108.252 C307.4265,1115.2341 301.3205,1115.8382 296.1631,1110.5108 C291.1497,1115.9739 285.1471,1116.2881 282.3274,1108.2609 C276.6496,1113.8111 271.6844,1114.1151 267.7509,1106.3511 C263.3501,1112.2765 256.8495,1111.3572 253.5053,1105.1142 C244.2022,1103.3046 240.0759,1099.3008 245.7028,1089.8564 C241.7983,1081.519 246.4409,1075.6173 255.0308,1075.2702" fill="#F1F1F1" style="stroke:#181818;stroke-width:0.5;"/><text fill="#000000" font-family="sans-serif" font-size="14" lengthAdjust="spacing" textLength="70.2256" x="260" y="1093.7138">&#38899;&#20048;&#24179;&#21488; C</text></g><!--reverse link liveA to ReaderA--><g class="link" data-entity-1="ent0002" data-entity-2="ent0007" data-link-type="dependency" data-source-line="22" id="lnk16"><path d="M105,58.7587 C105,90.4887 105,143.0087 105,177.4287" fill="none" id="liveA-backto-ReaderA" style="stroke:#181818;stroke-width:1;stroke-dasharray:7,7;"/><polygon fill="#181818" points="105,52.7587,101,61.7587,105,57.7587,109,61.7587,105,52.7587" style="stroke:#181818;stroke-width:1;"/></g><!--reverse link liveB to ReaderB--><g class="link" data-entity-1="ent0003" data-entity-2="ent0008" data-link-type="dependency" data-source-line="23" id="lnk17"><path d="M259,58.7587 C259,90.4887 259,143.0087 259,177.4287" fill="none" id="liveB-backto-ReaderB" style="stroke:#181818;stroke-width:1;stroke-dasharray:7,7;"/><polygon fill="#181818" points="259,52.7587,255,61.7587,259,57.7587,263,61.7587,259,52.7587" style="stroke:#181818;stroke-width:1;"/></g><!--reverse link liveC to ReaderC--><g class="link" data-entity-1="ent0004" data-entity-2="ent0009" data-link-type="dependency" data-source-line="24" id="lnk18"><path d="M413,58.7587 C413,90.4887 413,143.0087 413,177.4287" fill="none" id="liveC-backto-ReaderC" style="stroke:#181818;stroke-width:1;stroke-dasharray:7,7;"/><polygon fill="#181818" points="413,52.7587,409,61.7587,413,57.7587,417,61.7587,413,52.7587" style="stroke:#181818;stroke-width:1;"/></g><!--link ReaderA to Parser--><g class="link" data-entity-1="ent0007" data-entity-2="ent0011" data-link-type="dependency" data-source-line="25" id="lnk19"><path d="M131.96,234.0487 C160.14,262.6087 199.6156,302.628 225.7856,329.148" fill="none" id="ReaderA-to-Parser" style="stroke:#181818;stroke-width:1;stroke-dasharray:7,7;"/><polygon fill="#181818" points="230,333.4187,226.5256,324.203,226.488,329.8597,220.8313,329.8222,230,333.4187" style="stroke:#181818;stroke-width:1;"/><text fill="#000000" font-family="sans-serif" font-size="13" lengthAdjust="spacing" textLength="52" x="180" y="278.7856">&#27966;&#21457;&#24377;&#24149;</text></g><!--link ReaderB to Parser--><g class="link" data-entity-1="ent0008" data-entity-2="ent0011" data-link-type="dependency" data-source-line="26" id="lnk20"><path d="M257.72,234.0487 C256.37,262.6087 254.5702,300.9052 253.3302,327.4252" fill="none" id="ReaderB-to-Parser" style="stroke:#181818;stroke-width:1;stroke-dasharray:7,7;"/><polygon fill="#181818" points="253.05,333.4187,257.466,324.6153,253.2835,328.4241,249.4747,324.2417,253.05,333.4187" style="stroke:#181818;stroke-width:1;"/><text fill="#000000" font-family="sans-serif" font-size="13" lengthAdjust="spacing" textLength="52" x="258" y="278.7856">&#27966;&#21457;&#24377;&#24149;</text></g><!--link ReaderC to Parser--><g class="link" data-entity-1="ent0009" data-entity-2="ent0011" data-link-type="dependency" data-source-line="27" id="lnk21"><path d="M383.47,234.0487 C352.51,262.6987 308.884,303.0838 280.244,329.5838" fill="none" id="ReaderC-to-Parser" style="stroke:#181818;stroke-width:1;stroke-dasharray:7,7;"/><polygon fill="#181818" points="275.84,333.6587,285.1626,330.4823,279.51,330.2629,279.7294,324.6103,275.84,333.6587" style="stroke:#181818;stroke-width:1;"/><text fill="#000000" font-family="sans-serif" font-size="13" lengthAdjust="spacing" textLength="52" x="348" y="278.7856">&#27966;&#21457;&#24377;&#24149;</text></g><!--link Parser to Jukebox--><g class="link" data-entity-1="ent0011" data-entity-2="ent0012" data-link-type="dependency" data-source-line="28" id="lnk22"><path d="M248.33,379.9087 C244.72,401.7487 240.228,428.9589 236.628,450.7489" fill="none" id="Parser-to-Jukebox" style="stroke:#181818;stroke-width:1;"/><polygon fill="#181818" points="235.65,456.6687,241.0635,448.4411,236.465,451.7356,233.1705,447.137,235.65,456.6687" style="stroke:#181818;stroke-width:1;"/><text fill="#000000" font-family="sans-serif" font-size="13" lengthAdjust="spacing" textLength="52" x="245" y="422.7856">&#27966;&#21457;&#25351;&#20196;</text></g><!--link SongList to Jukebox--><g class="link" data-entity-1="ent0013" data-entity-2="ent0012" data-link-type="composition" data-source-line="29" id="lnk24"><path d="M156.01,479.7187 C167.59,479.7187 167.16,479.7187 178.74,479.7187" fill="none" id="SongList-to-Jukebox" style="stroke:#181818;stroke-width:1;"/><polygon fill="#181818" points="190.74,479.7187,184.74,475.7187,178.74,479.7187,184.74,483.7187,190.74,479.7187" style="stroke:#181818;stroke-width:1;"/></g><!--link AutoPicker to SongList--><g class="link" data-entity-1="ent0014" data-entity-2="ent0013" data-link-type="composition" data-source-line="30" id="lnk26"><path d="M101,379.9087 C101,401.7487 101,422.8787 101,444.6687" fill="none" id="AutoPicker-to-SongList" style="stroke:#181818;stroke-width:1;"/><polygon fill="#181818" points="101,456.6687,105,450.6687,101,444.6687,97,450.6687,101,456.6687" style="stroke:#181818;stroke-width:1;"/></g><!--link Jukebox to DialogEventer--><g class="link" data-entity-1="ent0012" data-entity-2="ent0015" data-link-type="dependency" data-source-line="31" id="lnk28"><path d="M273.07,479.7187 C309.44,479.7187 356.56,479.7187 394.9,479.7187" fill="none" id="Jukebox-to-DialogEventer" style="stroke:#181818;stroke-width:1;"/><polygon fill="#181818" points="400.9,479.7187,391.9,475.7187,395.9,479.7187,391.9,483.7187,400.9,479.7187" style="stroke:#181818;stroke-width:1;"/><text fill="#000000" font-family="sans-serif" font-size="13" lengthAdjust="spacing" textLength="91" x="291.5" y="472.7856">&#27966;&#21457;&#26381;&#21153;&#31471;&#20449;&#24687;</text></g><!--reverse link Jukebox to DialogEventer--><g class="link" data-entity-1="ent0012" data-entity-2="ent0015" data-link-type="dependency" data-source-line="32" id="lnk30"><path d="M278.87,497.3287 C284.63,499.0087 284.78,498.7687 290.5,499.7187 C331.27,506.4987 342.62,505.8187 383.5,499.7187 C389.14,498.8787 394.98,497.6487 400.72,496.2087" fill="none" id="Jukebox-backto-DialogEventer" style="stroke:#181818;stroke-width:1;"/><polygon fill="#181818" points="273.11,495.6487,280.63,502.0087,277.91,497.0487,282.87,494.3287,273.11,495.6487" style="stroke:#181818;stroke-width:1;"/><text fill="#000000" font-family="sans-serif" font-size="13" lengthAdjust="spacing" textLength="91" x="291.5" y="495.7856">&#27966;&#21457;&#23458;&#25143;&#31471;&#20449;&#24687;</text></g><!--link DialogEventer to DialogState--><g class="link" data-entity-1="ent0015" data-entity-2="ent0033" data-link-type="dependency" data-source-line="48" id="lnk42"><path d="M449,508.8987 C449,549.4287 449,622.9787 449,663.5187" fill="none" id="DialogEventer-DialogState" style="stroke:#181818;stroke-width:1;"/><polygon fill="#181818" points="449,502.8987,445,511.8987,449,507.8987,453,511.8987,449,502.8987" style="stroke:#181818;stroke-width:1;"/><polygon fill="#181818" points="449,669.5187,453,660.5187,449,664.5187,445,660.5187,449,669.5187" style="stroke:#181818;stroke-width:1;"/><text fill="#000000" font-family="sans-serif" font-size="13" lengthAdjust="spacing" textLength="77.2129" x="450" y="571.7856">Web Socket</text></g><!--reverse link DialogState to Prompt--><g class="link" data-entity-1="ent0033" data-entity-2="ent0035" data-link-type="dependency" data-source-line="49" id="lnk44"><path d="M416.8581,719.481 C394.6481,737.281 368.19,758.4887 345.88,776.3787" fill="none" id="DialogState-backto-Prompt" style="stroke:#181818;stroke-width:1;"/><polygon fill="#181818" points="421.54,715.7287,412.0156,718.2358,417.6384,718.8556,417.0186,724.4784,421.54,715.7287" style="stroke:#181818;stroke-width:1;"/></g><!--reverse link DialogState to PlayController--><g class="link" data-entity-1="ent0033" data-entity-2="ent0036" data-link-type="dependency" data-source-line="50" id="lnk46"><path d="M449,721.7287 C449,739.5287 449,758.4887 449,776.3787" fill="none" id="DialogState-backto-PlayController" style="stroke:#181818;stroke-width:1;"/><polygon fill="#181818" points="449,715.7287,445,724.7287,449,720.7287,453,724.7287,449,715.7287" style="stroke:#181818;stroke-width:1;"/></g><!--link ListDisplay to DialogState--><g class="link" data-entity-1="ent0034" data-entity-2="ent0033" data-link-type="dependency" data-source-line="51" id="lnk47"><path d="M366.02,692.7187 C377.58,692.7187 383.14,692.7187 394.7,692.7187" fill="none" id="ListDisplay-to-DialogState" style="stroke:#181818;stroke-width:1;"/><polygon fill="#181818" points="400.7,692.7187,391.7,688.7187,395.7,692.7187,391.7,696.7187,400.7,692.7187" style="stroke:#181818;stroke-width:1;"/></g><!--reverse link PlayController to PlayerA--><g class="link" data-entity-1="ent0036" data-entity-2="ent0038" data-link-type="dependency" data-source-line="52" id="lnk48"><path d="M476.3718,827.201 C503.8918,853.831 545.58,894.1587 575.08,922.7087" fill="none" id="PlayController-backto-PlayerA" style="stroke:#181818;stroke-width:1;stroke-dasharray:7,7;"/><polygon fill="#181818" points="472.06,823.0287,475.7461,832.1617,475.6532,826.5056,481.3092,826.4127,472.06,823.0287" style="stroke:#181818;stroke-width:1;"/><text fill="#000000" font-family="sans-serif" font-size="13" lengthAdjust="spacing" textLength="39" x="522" y="867.7856">&#34987;&#25346;&#36733;</text></g><!--reverse link PlayController to PlayerB--><g class="link" data-entity-1="ent0036" data-entity-2="ent0039" data-link-type="dependency" data-source-line="53" id="lnk49"><path d="M449,829.0287 C449,855.6587 449,894.1587 449,922.7087" fill="none" id="PlayController-backto-PlayerB" style="stroke:#181818;stroke-width:1;stroke-dasharray:7,7;"/><polygon fill="#181818" points="449,823.0287,445,832.0287,449,828.0287,453,832.0287,449,823.0287" style="stroke:#181818;stroke-width:1;"/><text fill="#000000" font-family="sans-serif" font-size="13" lengthAdjust="spacing" textLength="39" x="450" y="867.7856">&#34987;&#25346;&#36733;</text></g><!--reverse link PlayController to PlayerC--><g class="link" data-entity-1="ent0036" data-entity-2="ent0040" data-link-type="dependency" data-source-line="54" id="lnk50"><path d="M421.6282,827.201 C394.1082,853.831 352.42,916.4556 322.92,945.0056" fill="none" id="PlayController-backto-PlayerC" style="stroke:#181818;stroke-width:1;stroke-dasharray:7,7;"/><polygon fill="#181818" points="425.94,823.0287,416.6908,826.4127,422.3468,826.5056,422.2539,832.1617,425.94,823.0287" style="stroke:#181818;stroke-width:1;"/><text fill="#000000" font-family="sans-serif" font-size="13" lengthAdjust="spacing" textLength="39" x="391" y="867.7856">&#34987;&#25346;&#36733;</text></g><!--link PlayerA to musicA--><g class="link" data-entity-1="ent0038" data-entity-2="ent0051" data-link-type="dependency" data-source-line="60" id="lnk55"><path d="M603,978.9087 C603,1004.3387 603,1035.8387 603,1059.5087" fill="none" id="PlayerA-to-musicA" style="stroke:#181818;stroke-width:1;stroke-dasharray:7,7;"/><polygon fill="#181818" points="603,1065.5087,607,1056.5087,603,1060.5087,599,1056.5087,603,1065.5087" style="stroke:#181818;stroke-width:1;"/></g><!--link PlayerB to musicB--><g class="link" data-entity-1="ent0039" data-entity-2="ent0052" data-link-type="dependency" data-source-line="61" id="lnk57"><path d="M449,978.9087 C449,1004.3387 449,1035.8387 449,1059.5087" fill="none" id="PlayerB-to-musicB" style="stroke:#181818;stroke-width:1;stroke-dasharray:7,7;"/><polygon fill="#181818" points="449,1065.5087,453,1056.5087,449,1060.5087,445,1056.5087,449,1065.5087" style="stroke:#181818;stroke-width:1;"/></g><!--link PlayerC to musicC--><g class="link" data-entity-1="ent0040" data-entity-2="ent0053" data-link-type="dependency" data-source-line="62" id="lnk59"><path d="M295,978.9087 C295,1004.3387 295,1035.8387 295,1059.5087" fill="none" id="PlayerC-to-musicC" style="stroke:#181818;stroke-width:1;stroke-dasharray:7,7;"/><polygon fill="#181818" points="295,1065.5087,299,1056.5087,295,1060.5087,291,1056.5087,295,1065.5087" style="stroke:#181818;stroke-width:1;"/></g><?plantuml-src ZPNVRz9G5CVV-rVSzD6a_05c8Q5tlXWVY7lmkS0TDkieAIrgp99j9h9D4FonJIFJW4INJCQIuKp1uJ_3lIt_XRVjBVr1GT_8EPzpEETxlmVoYceK08_DQzoy0XbWVHgIj_tPwP07KWKeSXLbk7o44HCOCSR010PoN5dARqb5173hjNKnS18v6a6b0dZE0U1dlL9xCCRD4_pntC4U8gc0D9SAk63eESi7S2QH5HDPCP65YIoax0uN6XUFtdahvjXyUNMxh9PGIGUaNfkEU_Rth-HpYssIbRGAqcASjM-IVfsqHmvntzX2EVLfl5M_ZXl7rcN7QhrahJRKKl61ND5Z9ExLPhk7Naj6PWnTpSfKwVWNuu5f3ywcerVJyOq3hikIeXRlLMdEPNSukgfh0h2MIisLTPyy517T20n58CTOa4gbsTBWBY332Mw-mRzDR1upGlmd0LSGB2e8QL-tEU69p_dXEuA2DdKXKCt_G3D6MGXh5541hB72XVxj1ZxgK1zF_tJ8tY1MvHKjJeKlk-JWLr0LtCHXWzt4fgRI5h6Zc7L-piwwJhegeoSBJlCUqZgw8RjxmKDkw9AEOkJio_NKRE63KxjpJZvCh9vhEaU8TRbILgHdSUETr4Zx1scs69dLQ2hkENglvFt4ldg1HzzSYFQ1T0jDLHHcfD0gxWHUYNyLb5znttEM3-1bzvt4Bhll91RwjWz9I3r0BPAEdWTzKluHob53KTFeFES90yAaftzKZ0GW93uGDBduM5_TmJap9W8TmkvUaFg-VNkx71F_3uCHpFz9PuPXR-4gjMrKv7mc4H03G4m4O03GVmIl4vt1ACztye9Y92XwGHW9Gkul?></g></svg>